<svg xmlns="http://www.w3.org/2000/svg" viewBox="0 0 800 600" width="800" height="600" role="img">
<defs>
  <linearGradient id="bg" x1="0" y1="0" x2="1" y2="1">
    <stop offset="0" stop-color="#0b1c2c"/><stop offset="1" stop-color="#153352"/>
  </linearGradient>
  <linearGradient id="steel" x1="0" y1="0" x2="1" y2="0">
    <stop offset="0" stop-color="#8fa6bb"/><stop offset=".35" stop-color="#c9d7e4"/>
    <stop offset=".62" stop-color="#7d94a9"/><stop offset="1" stop-color="#a9bccd"/>
  </linearGradient>
  <linearGradient id="glass" x1="0" y1="0" x2="1" y2="0">
    <stop offset="0" stop-color="#4fc3f7" stop-opacity=".15"/>
    <stop offset=".5" stop-color="#4fc3f7" stop-opacity=".45"/>
    <stop offset="1" stop-color="#4fc3f7" stop-opacity=".15"/>
  </linearGradient>
  <radialGradient id="glow" cx=".5" cy=".5" r=".5">
    <stop offset="0" stop-color="#2e9be0" stop-opacity=".55"/>
    <stop offset="1" stop-color="#2e9be0" stop-opacity="0"/>
  </radialGradient>
  <pattern id="grid" width="40" height="40" patternUnits="userSpaceOnUse">
    <path d="M40 0H0V40" fill="none" stroke="#7fb6e8" stroke-opacity=".10" stroke-width="1"/>
  </pattern>
  
</defs>
<rect width="800" height="600" fill="url(#bg)"/>
<rect width="800" height="600" fill="url(#grid)"/>
<ellipse cx="400" cy="330" rx="330" ry="250" fill="url(#glow)"/>

<rect x="30" y="326" width="740" height="26" rx="6" fill="#c9d7e4" opacity=".32"/><rect x="30" y="352" width="740" height="128" fill="#0b1c2c" opacity=".5"/><rect x="30" y="429.0" width="740" height="26" rx="13.0" fill="url(#steel)" stroke="#3f6a95" stroke-width="1.5"/><circle cx="430" cy="442" r="10" fill="#ff6b52"/><path d="M430,432 q-17.0,-23.0 -34,-46" fill="none" stroke="#4fc3f7" stroke-width="5" stroke-linecap="round" opacity=".75"/><path d="M430,432 q-4.0,-28.0 -8,-56" fill="none" stroke="#4fc3f7" stroke-width="5" stroke-linecap="round" opacity=".75"/><path d="M430,432 q10.0,-22.0 20,-44" fill="none" stroke="#4fc3f7" stroke-width="5" stroke-linecap="round" opacity=".75"/><path d="M380.8,433.3 A50,50 0 0 1 479.2,433.3" fill="none" stroke="#2e9be0" stroke-width="4" stroke-linecap="round" opacity="0.85"/><path d="M351.2,428.1 A80,80 0 0 1 508.8,428.1" fill="none" stroke="#2e9be0" stroke-width="4" stroke-linecap="round" opacity="0.63"/><path d="M321.7,422.9 A110,110 0 0 1 538.3,422.9" fill="none" stroke="#2e9be0" stroke-width="4" stroke-linecap="round" opacity="0.41"/><path d="M292.1,417.7 A140,140 0 0 1 567.9,417.7" fill="none" stroke="#2e9be0" stroke-width="4" stroke-linecap="round" opacity="0.19"/><ellipse cx="430" cy="322" rx="54" ry="17" fill="#c9d7e4" stroke="#3f6a95" stroke-width="2"/><rect x="409" y="278" width="42" height="46" rx="11" fill="#153352" stroke="#c9d7e4" stroke-width="2"/><path d="M430,278 C430,232 536,246 560,214" fill="none" stroke="#2e9be0" stroke-width="6" stroke-linecap="round"/><rect x="540" y="116" width="184" height="124" rx="16" fill="#0b1c2c" stroke="#c9d7e4" stroke-width="3"/><rect x="558" y="134" width="148" height="70" rx="8" fill="#153352"/><rect x="574" y="180" width="15" height="16" rx="3" fill="#4fc3f7" opacity=".85"/><rect x="601" y="168" width="15" height="28" rx="3" fill="#4fc3f7" opacity=".85"/><rect x="628" y="152" width="15" height="44" rx="3" fill="#4fc3f7" opacity=".85"/><rect x="655" y="164" width="15" height="32" rx="3" fill="#4fc3f7" opacity=".85"/><rect x="682" y="176" width="15" height="20" rx="3" fill="#4fc3f7" opacity=".85"/><circle cx="632" cy="222" r="7" fill="#2e9be0"/>
<rect x="0" y="596" width="800" height="4" fill="#2e9be0" opacity=".7"/>
</svg>