<svg xmlns="http://www.w3.org/2000/svg" viewBox="0 0 800 600" width="800" height="600" role="img">
<defs>
  <linearGradient id="bg" x1="0" y1="0" x2="1" y2="1">
    <stop offset="0" stop-color="#0b1c2c"/><stop offset="1" stop-color="#153352"/>
  </linearGradient>
  <linearGradient id="steel" x1="0" y1="0" x2="1" y2="0">
    <stop offset="0" stop-color="#8fa6bb"/><stop offset=".35" stop-color="#c9d7e4"/>
    <stop offset=".62" stop-color="#7d94a9"/><stop offset="1" stop-color="#a9bccd"/>
  </linearGradient>
  <linearGradient id="glass" x1="0" y1="0" x2="1" y2="0">
    <stop offset="0" stop-color="#4fc3f7" stop-opacity=".15"/>
    <stop offset=".5" stop-color="#4fc3f7" stop-opacity=".45"/>
    <stop offset="1" stop-color="#4fc3f7" stop-opacity=".15"/>
  </linearGradient>
  <radialGradient id="glow" cx=".5" cy=".5" r=".5">
    <stop offset="0" stop-color="#2e9be0" stop-opacity=".55"/>
    <stop offset="1" stop-color="#2e9be0" stop-opacity="0"/>
  </radialGradient>
  <pattern id="grid" width="40" height="40" patternUnits="userSpaceOnUse">
    <path d="M40 0H0V40" fill="none" stroke="#7fb6e8" stroke-opacity=".10" stroke-width="1"/>
  </pattern>
  
</defs>
<rect width="800" height="600" fill="url(#bg)"/>
<rect width="800" height="600" fill="url(#grid)"/>
<ellipse cx="400" cy="330" rx="330" ry="250" fill="url(#glow)"/>

<rect x="30" y="283.0" width="740" height="34" rx="17.0" fill="url(#steel)" stroke="#3f6a95" stroke-width="1.5"/><path d="M348,300 q28,-9 56,0" fill="none" stroke="#0b1c2c" stroke-width="11" stroke-linecap="round"/><path d="M352,286 l15,-13 l11,15 l17,-11 l9,17" fill="none" stroke="#0b1c2c" stroke-width="5" stroke-linecap="round" stroke-linejoin="round"/><path d="M376,282 L261,226" stroke="#4fc3f7" stroke-width="6" stroke-linecap="round" opacity=".65"/><path d="M376,282 L287,190" stroke="#4fc3f7" stroke-width="6" stroke-linecap="round" opacity=".65"/><path d="M376,282 L324,165" stroke="#4fc3f7" stroke-width="6" stroke-linecap="round" opacity=".65"/><path d="M376,282 L367,154" stroke="#4fc3f7" stroke-width="6" stroke-linecap="round" opacity=".65"/><path d="M376,282 L411,159" stroke="#4fc3f7" stroke-width="6" stroke-linecap="round" opacity=".65"/><path transform="translate(284,154) scale(0.34)" opacity="0.55" fill="#4fc3f7" d="M0,-30 C14,-10 22,2 22,12 A22,22 0 0 1 -22,12 C-22,2 -14,-10 0,-30 Z"/><path transform="translate(386,124) scale(0.28)" opacity="0.55" fill="#4fc3f7" d="M0,-30 C14,-10 22,2 22,12 A22,22 0 0 1 -22,12 C-22,2 -14,-10 0,-30 Z"/><path transform="translate(462,162) scale(0.32)" opacity="0.55" fill="#4fc3f7" d="M0,-30 C14,-10 22,2 22,12 A22,22 0 0 1 -22,12 C-22,2 -14,-10 0,-30 Z"/><rect x="558" y="266" width="100" height="68" rx="11" fill="url(#steel)" stroke="#3f6a95" stroke-width="2.5"/><rect x="600" y="192" width="17" height="80" rx="8" fill="#ff6b52"/><rect x="572" y="176" width="90" height="23" rx="11" fill="#ff6b52"/><circle cx="608" cy="300" r="13" fill="#0b1c2c" stroke="#c9d7e4" stroke-width="2"/><path d="M162,198 l60,104 h-120 Z" fill="#ff6b52" opacity=".93" stroke="#0b1c2c" stroke-width="3" stroke-linejoin="round"/><path d="M162,232 v36" stroke="#fff" stroke-width="7" stroke-linecap="round"/><circle cx="162" cy="284" r="4.6" fill="#fff"/>
<rect x="0" y="596" width="800" height="4" fill="#2e9be0" opacity=".7"/>
</svg>