<svg xmlns="http://www.w3.org/2000/svg" viewBox="0 0 800 600" width="800" height="600" role="img">
<defs>
  <linearGradient id="bg" x1="0" y1="0" x2="1" y2="1">
    <stop offset="0" stop-color="#0b1c2c"/><stop offset="1" stop-color="#153352"/>
  </linearGradient>
  <linearGradient id="steel" x1="0" y1="0" x2="1" y2="0">
    <stop offset="0" stop-color="#8fa6bb"/><stop offset=".35" stop-color="#c9d7e4"/>
    <stop offset=".62" stop-color="#7d94a9"/><stop offset="1" stop-color="#a9bccd"/>
  </linearGradient>
  <linearGradient id="glass" x1="0" y1="0" x2="1" y2="0">
    <stop offset="0" stop-color="#4fc3f7" stop-opacity=".15"/>
    <stop offset=".5" stop-color="#4fc3f7" stop-opacity=".45"/>
    <stop offset="1" stop-color="#4fc3f7" stop-opacity=".15"/>
  </linearGradient>
  <radialGradient id="glow" cx=".5" cy=".5" r=".5">
    <stop offset="0" stop-color="#2e9be0" stop-opacity=".55"/>
    <stop offset="1" stop-color="#2e9be0" stop-opacity="0"/>
  </radialGradient>
  <pattern id="grid" width="40" height="40" patternUnits="userSpaceOnUse">
    <path d="M40 0H0V40" fill="none" stroke="#7fb6e8" stroke-opacity=".10" stroke-width="1"/>
  </pattern>
  
</defs>
<rect width="800" height="600" fill="url(#bg)"/>
<rect width="800" height="600" fill="url(#grid)"/>
<ellipse cx="400" cy="330" rx="330" ry="250" fill="url(#glow)"/>

<rect x="140" y="287.0" width="420" height="26" rx="13.0" fill="url(#steel)" stroke="#3f6a95" stroke-width="1.5"/><rect x="283.0" y="291.0" width="34" height="18" rx="3" fill="#c9d7e4" stroke="#3f6a95" stroke-width="1.5"/><rect x="453.0" y="291.0" width="34" height="18" rx="3" fill="#c9d7e4" stroke="#3f6a95" stroke-width="1.5"/><rect x="547.0" y="190" width="26" height="110" rx="13.0" fill="url(#steel)" stroke="#3f6a95" stroke-width="1.5"/><circle cx="386" cy="300" r="34" fill="#0b1c2c" stroke="#c9d7e4" stroke-width="3"/><rect x="378" y="252" width="16" height="52" rx="8" fill="#ff6b52"/><circle cx="200" cy="200" r="30" fill="#0b1c2c" stroke="#c9d7e4" stroke-width="3"/><circle cx="200" cy="200" r="23" fill="none" stroke="#7fb6e8" stroke-opacity=".5" stroke-width="1.5" stroke-dasharray="3 5"/><line x1="200" y1="200" x2="216.5" y2="186.5" stroke="#2e9be0" stroke-width="3" stroke-linecap="round"/><circle cx="200" cy="200" r="3.5" fill="#c9d7e4"/><path d="M560,120 c26,26 34,44 34,60 a34,34 0 0 1 -68,0 c0,-20 14,-34 34,-60 Z" fill="#ff9d4d" opacity=".92"/><path d="M560,152 c12,14 17,24 17,32 a17,17 0 0 1 -34,0 c0,-10 7,-18 17,-32 Z" fill="#ffd9a3" opacity=".95"/>
<rect x="0" y="596" width="800" height="4" fill="#2e9be0" opacity=".7"/>
</svg>